<?xml version="1.0" encoding="UTF-8" standalone="no"?>
<!DOCTYPE svg PUBLIC "-//W3C//DTD SVG 20010904//EN"
"http://www.w3.org/TR/2001/REC-SVG-20010904/DTD/svg10.dtd">
<!-- Created with Sodipodi ("http://www.sodipodi.com/") -->
<svg
   xmlns:dc="http://purl.org/dc/elements/1.1/"
   xmlns:cc="http://web.resource.org/cc/"
   xmlns:rdf="http://www.w3.org/1999/02/22-rdf-syntax-ns#"
   xmlns:svg="http://www.w3.org/2000/svg"
   xmlns="http://www.w3.org/2000/svg"
   xmlns:sodipodi="http://sodipodi.sourceforge.net/DTD/sodipodi-0.dtd"
   xmlns:inkscape="http://www.inkscape.org/namespaces/inkscape"
   id="svg1468"
   sodipodi:version="0.34"
   inkscape:version="0.42"
   width="500pt"
   height="500pt"
   sodipodi:docbase="/home/james/images/emusicj/"
   sodipodi:docname="/home/james/images/emusicj/headphones.svg"
   inkscape:export-filename="/home/james/images/emusicj/headphones.png"
   inkscape:export-xdpi="90.000000"
   inkscape:export-ydpi="90.000000"
   xmlns:xlink="http://www.w3.org/1999/xlink">
  <metadata
     id="metadata1473">
    <rdf:RDF>
      <cc:Work
         rdf:about="">
        <dc:format>image/svg+xml</dc:format>
        <dc:type
           rdf:resource="http://purl.org/dc/dcmitype/StillImage" />
      </cc:Work>
    </rdf:RDF>
  </metadata>
  <defs
     id="defs1471" />
  <sodipodi:namedview
     inkscape:window-height="731"
     inkscape:window-width="1024"
     inkscape:pageshadow="2"
     inkscape:pageopacity="0.0"
     borderopacity="1.0"
     bordercolor="#666666"
     pagecolor="#ffffff"
     id="base"
     inkscape:zoom="1.0000000"
     inkscape:cx="482.21064"
     inkscape:cy="577.71518"
     inkscape:window-x="0"
     inkscape:window-y="6"
     inkscape:current-layer="svg1468" />
  <path
     id="path1477"
     style="fill:#000000;fill-opacity:1.0000000"
     d="M 35.98405 582.7305 C 35.052 579.9763 33.18985 575.1125 31.84597 571.9219 C 30.07608 567.7198 30.73217 565.01 34.22609 562.0911 C 40.43257 556.9061 78.3212 546.3158 94.41439 545.2678 C 117.7489 543.7485 144.0426 520.8815 144.6588 501.5716 C 144.9545 492.3019 144.3273 491.4874 136.3899 490.832 C 131.6661 490.442 115.1497 488.0513 99.68692 485.5198 C 49.80213 477.3522 29.02931 462.8016 29.02931 436.0263 C 29.02931 419.7891 38.53346 408.6074 62.56817 396.5672 C 82.87635 386.3939 149.4569 365.4379 175.8364 360.9162 C 198.4836 357.0344 203.5098 352.0179 197.7828 339.0117 C 195.4916 333.8084 194.8234 323.5936 195.8514 309.4851 C 197.9508 280.6711 207.9714 260.8071 225.4312 250.8483 C 232.2581 246.9544 237.8844 242.2535 237.9342 240.402 C 238.046 236.243 241.5703 236.0617 245.7565 239.9996 C 251.4171 245.3246 253.5656 232.0012 247.9822 226.1976 C 243.3659 221.3991 243.528 220.4509 251.0574 208.2116 C 275.5028 168.4746 280.4506 158.0013 277.8348 151.5295 C 274.3942 143.0164 274.4515 142.8039 280.2532 142.5848 C 284.8153 142.4125 284.7919 142.2209 279.9917 140.4434 C 271.404 137.2632 326.0035 86.87106 350.1558 75.68596 C 389.647 57.39732 445.7278 56.03349 483.031 72.4546 C 520.2832 88.85329 559.3237 133.4063 567.4899 168.8392 C 572.4754 190.4717 576.2327 215.781 574.9507 219.0961 C 574.2856 220.8158 572.9021 216.1633 571.8762 208.757 C 567.3758 176.2695 567.6091 176.6341 550.0861 174.7083 C 541.4256 173.7564 528.7819 171.612 521.989 169.9429 C 515.196 168.2737 508.4322 167.609 506.9585 168.4659 C 505.4847 169.3227 504.2789 174.5683 504.2789 180.1228 C 504.2789 191.9746 499.8859 198.1198 489.9641 200.1477 C 483.6853 201.431 481.9682 200.002 475.9741 188.504 C 467.0182 171.3243 438.9782 140.0809 432.516 140.0809 C 429.726 140.0809 423.796 141.8634 419.3381 144.0422 C 414.8804 146.2208 402.859 151.2753 392.6239 155.2742 C 382.3888 159.2733 370.9974 165.4356 367.3095 168.9684 C 360.3806 175.6063 352.4775 176.2654 350.3941 170.3792 C 349.6702 168.334 351.8245 166.9965 355.8827 166.9714 C 361.2461 166.9384 361.7165 166.4156 358.2685 164.3195 C 354.9493 162.3017 355.9247 161.6512 362.563 161.455 C 371.0374 161.2045 371.0564 161.1708 363.9944 158.9323 C 360.0578 157.6846 350.7175 155.8881 343.238 154.9403 C 335.7585 153.9923 329.6389 152.0954 329.6389 150.7247 C 329.6389 149.3541 324.8331 146.3437 318.9593 144.035 C 309.3306 140.2505 307.9611 140.2469 305.0446 143.9989 C 303.2653 146.2877 300.8935 148.1605 299.7736 148.1605 C 298.6538 148.1605 295.8583 149.9284 293.5614 152.089 C 289.9015 155.5317 290.4209 156.5215 297.7595 160.0915 C 308.642 165.3854 328.9702 170.3257 338.9441 170.1005 L 346.8178 169.9227 L 341.1789 177.2205 C 338.0777 181.2344 331.0069 193.9463 325.4663 205.4695 L 315.3924 226.4204 L 321.7999 228.6578 C 325.3242 229.8883 332.7167 231.6813 338.2278 232.6421 C 357.7492 236.0453 377.0073 249.1418 390.1568 267.9563 C 402.308 285.3422 402.559 285.5165 412.5652 283.5061 C 418.1311 282.3879 432.9914 281.4731 445.5885 281.4732 C 464.7231 281.4733 470.2932 282.5265 479.4377 287.8743 C 485.9108 291.6597 491.4344 293.2865 492.9557 291.8554 C 496.0274 288.9658 501.2794 256.6306 501.3592 240.1173 C 501.4016 231.3471 499.5275 226.2756 493.9326 220.0208 C 485.9054 211.0467 488.3708 207.7103 499.11 213.0141 C 505.6902 216.2638 505.6936 216.256 500.2405 210.479 C 497.2323 207.2919 495.3545 204.1351 496.068 203.4639 C 496.7815 202.7927 504.8476 204.0817 513.9928 206.3282 C 523.1379 208.5748 534.3559 209.641 538.9218 208.6977 C 547.3451 206.9572 549.6393 209.4466 544.2682 214.4991 C 542.2371 216.4098 544.8159 218.2659 552.5175 220.4365 C 558.6797 222.1733 564.9398 225.1037 566.4288 226.9484 C 568.1029 229.0226 568.1767 240.5793 566.6222 257.2343 C 565.2396 272.0467 564.2499 290.5615 564.423 298.3779 C 564.8035 315.5595 562.5306 323.2173 557.0506 323.2173 C 552.1746 323.2173 552.2748 324.0464 555.766 312.5951 C 559.9501 298.8713 554.4601 284.0619 543.6231 279.8391 C 531.8123 275.2371 527.4829 278.3932 516.2902 299.7655 C 511.0868 309.7015 505.1175 317.8309 503.0251 317.8309 C 500.9328 317.8309 498.3702 319.9519 497.3307 322.544 C 491.3332 337.499 490.3234 338.015 466.4374 338.33 L 443.6776 338.6303 L 449.4731 333.1785 C 453.3723 329.5105 460.2823 327.3357 470.5921 326.5314 C 483.9641 325.4881 486.538 324.3157 490.8028 317.3254 C 496.9523 307.2458 496.9592 304.365 490.8337 304.365 C 488.1629 304.365 481.3991 301.4764 475.8032 297.9458 C 464.6431 290.9044 438.8094 285.2803 448.6184 292.0275 C 453.435 295.3407 453.0653 295.7858 443.9951 297.5956 C 421.9664 301.9909 394.5247 318.5636 368.266 343.3306 C 345.4024 364.8952 323.6843 393.9225 327.6337 397.6378 C 328.4178 398.3752 335.2687 392.7339 342.858 385.1015 C 356.3952 371.4872 364.6713 366.1441 380.4369 360.8404 L 388.3294 358.1853 L 380.9138 364.2667 C 376.8351 367.6114 362.1329 379.4375 348.2421 390.5468 C 330.9913 404.3435 321.309 414.303 317.6945 421.9689 C 307.2119 444.2021 303.1749 481.0472 309.5064 496.7041 C 311.732 502.2081 311.7752 505.088 309.6507 506.3232 C 304.5834 509.2693 322.585 529.7079 339.6164 540.3455 C 350.7766 547.316 356.3802 549.3854 358.9476 547.4846 C 363.0735 544.4296 384.717 546.2277 382.6005 549.4495 C 379.6162 553.9916 395.8901 554.6396 408.936 550.4982 C 437.3091 541.4909 449.0635 532.9462 475.875 501.8373 C 492.9337 482.0445 500.0079 470.3929 498.8866 463.9361 C 498.0182 458.9357 506.2382 459.8561 508.3341 464.994 C 510.9673 471.4489 492.4318 495.7104 465.7361 520.7517 C 440.7414 544.1974 416.1043 557.5184 397.7297 557.522 C 389.1955 557.5237 384.2492 559.8969 372.7428 569.5102 C 355.6436 583.7962 344.6793 586.352 317.4815 582.3918 C 277.7335 576.6042 236.2019 550.8262 220.7647 522.3611 C 214.6618 511.1077 213.2616 489.7595 217.8775 478.3388 C 220.0744 472.9031 218.9609 468.0842 212.3915 454.5982 C 207.8581 445.2918 202.5234 428.7703 200.5367 417.8835 C 198.4278 406.3275 195.3047 397.5048 193.0326 396.6846 C 182.496 392.8811 71.9735 429.0024 71.9735 436.2495 C 71.9735 440.8075 84.42916 444.1598 112.4669 447.1476 C 146.2929 450.7522 153.3468 454.3248 158.8071 470.6174 C 166.7019 494.1737 166.996 502.0881 160.5755 518.2305 C 149.9586 544.9243 147.0152 547.0625 84.85693 573.2343 C 52.09492 587.0286 38.34291 589.7007 35.98405 582.7305 z M 337.5121 574.5199 C 334.7566 573.8425 330.2474 573.8425 327.4919 574.5199 C 324.7362 575.1974 326.9907 575.7516 332.5019 575.7516 C 338.0131 575.7516 340.2676 575.1974 337.5121 574.5199 z M 70.90696 567.2009 C 78.98084 563.6643 86.3475 559.6129 87.27736 558.1975 C 89.36681 555.0171 49.0761 567.2138 45.0826 570.9706 C 39.57926 576.1475 55.93052 573.7606 70.90696 567.2009 z M 316.04 571.8996 C 314.0718 571.1525 310.8509 571.1525 308.8826 571.8996 C 306.9144 572.6467 308.5248 573.258 312.4614 573.258 C 316.3979 573.258 318.0083 572.6467 316.04 571.8996 z M 360.4578 564.3301 C 366.3395 559.1857 369.5867 554.9439 367.6738 554.9038 C 365.7609 554.8637 362.8298 557.2321 361.1602 560.1668 C 359.4905 563.1015 354.614 567.2947 350.3234 569.4852 C 346.0328 571.6755 344.1516 573.5162 346.1431 573.5754 C 348.1344 573.6348 354.5761 569.4743 360.4578 564.3301 z M 292.4207 565.6037 C 290.0587 564.1678 286.838 562.9929 285.2633 562.9929 C 283.6886 562.9929 284.3328 564.1678 286.6947 565.6037 C 289.0568 567.0395 292.2775 568.2144 293.8521 568.2144 C 295.4267 568.2144 294.7825 567.0395 292.4207 565.6037 z M 344.1807 560.586 L 350.7679 555.5683 L 343.7821 552.0834 C 339.9399 550.1669 327.5837 540.2173 316.324 529.9733 C 297.7053 513.0343 294.4652 511.1675 280.5371 509.3545 C 263.338 507.1157 254.3711 503.3437 243.4035 493.7336 L 235.899 487.1581 L 234.5371 493.8602 C 230.833 512.0877 250.4705 535.1935 283.9199 551.9647 C 311.0408 565.5628 333.4402 568.7674 344.1807 560.586 z M 248.0449 538.6719 C 241.8946 532.7468 236.2184 527.8992 235.4311 527.8992 C 234.6438 527.8992 239.0317 532.7468 245.182 538.6719 C 251.3323 544.5969 257.0086 549.4446 257.7958 549.4446 C 258.5832 549.4446 254.1952 544.5969 248.0449 538.6719 z M 139.2529 535.9787 C 143.7786 531.535 146.8374 527.8992 146.0501 527.8992 C 145.2628 527.8992 140.9157 531.535 136.3899 535.9787 C 131.8642 540.4225 128.8055 544.0583 129.5927 544.0583 C 130.3801 544.0583 134.7271 540.4225 139.2529 535.9787 z M 225.7605 490.8679 C 225.1046 486.7944 224.5677 490.1272 224.5677 498.2742 C 224.5677 506.421 225.1046 509.7538 225.7605 505.6804 C 226.4165 501.607 226.4165 494.9413 225.7605 490.8679 z M 296.5881 489.8559 C 291.8558 477.2387 291.3561 473.0987 294.8075 475.1052 C 296.1202 475.8685 298.805 466.5475 300.7739 454.392 C 309.1068 402.9432 320.1705 380.0143 353.4893 345.1423 C 384.4872 312.6992 412.4872 294.3886 432.7052 293.339 C 437.1422 293.1087 438.0593 292.5176 435.1182 291.784 C 432.509 291.1331 423.3496 292.3261 414.7641 294.4351 C 395.7085 299.1162 391.9488 297.4748 382.7927 280.4773 C 372.8078 261.9416 356.6063 249.2201 337.9313 245.2516 C 310.2576 239.3708 303.3756 236.7518 305.0179 232.7259 C 305.8636 230.6523 305.3566 228.9559 303.8912 228.9559 C 302.4257 228.9559 305.8141 218.9575 311.4208 206.7371 C 317.0277 194.5168 322.1981 183.1794 322.9109 181.5429 C 324.2696 178.4229 293.5181 162.3895 290.8996 164.8527 C 290.0696 165.6335 282.9339 178.1655 275.0425 192.7016 C 264.2175 212.6417 261.1151 220.9321 262.4074 226.4667 C 263.7389 232.1698 262.1865 235.8741 255.432 243.1109 C 250.6535 248.2306 247.5117 253.1418 248.4504 254.0248 C 249.389 254.9078 245.6022 260.6359 240.0352 266.7539 C 234.4683 272.8721 225.0384 288.0602 219.08 300.5056 C 212.1635 314.9521 207.4348 321.9314 206.0017 319.8089 C 204.5945 317.7249 203.7406 319.1886 203.7131 323.7316 C 203.6362 336.4456 208.7589 334.4949 213.8506 319.8716 C 221.37 298.2759 234.1691 275.795 245.9817 263.4353 C 259.4399 249.354 279.8973 236.9889 289.4026 237.1906 C 295.343 237.3166 294.0291 238.5017 282.4003 243.5063 C 262.8749 251.9094 246.5128 269.6165 232.1923 297.8417 C 209.4061 342.7528 204.6203 388.263 218.3023 429.9332 C 231.9592 471.5272 253.9704 494.5793 283.8075 498.5359 C 290.9067 499.4774 297.6243 500.4096 298.7354 500.6074 C 299.8465 500.8054 298.8801 495.9672 296.5881 489.8559 z M 253.982 355.5356 C 255.0467 348.8698 260.2658 332.3411 265.5803 318.8048 C 276.6758 290.544 277.5228 285.7778 270.4782 291.2426 C 265.5147 295.0929 278.3588 274.2977 286.0874 265.9706 C 288.5016 263.3694 289.779 260.5846 288.9261 259.7822 C 285.7642 256.8079 265.6166 282.1198 255.583 301.6718 C 246.1027 320.1456 245.263 323.6861 245.751 343.1267 C 246.4632 371.4979 240.4407 366.6479 238.7086 337.4555 C 237.169 311.5077 244.0651 292.0542 261.3516 273.5802 C 279.0327 254.6845 298.605 246.7602 296.7357 259.2542 C 295.1838 269.627 286.6688 293.3726 276.8198 314.7936 C 271.6248 326.0922 265.0669 341.3962 262.2466 348.8025 C 255.179 367.3628 251.6314 370.253 253.982 355.5356 z M 260.9282 301.8308 C 260.9282 300.4369 262.2018 298.556 263.7584 297.6511 C 265.3813 296.7075 265.8613 297.7886 264.8836 300.1853 C 262.9803 304.851 260.9282 305.7047 260.9282 301.8308 z M 258.0653 246.4967 C 258.0653 242.9911 271.6969 229.211 273.4931 230.9006 C 274.4555 231.806 275.2429 231.301 275.2429 229.7782 C 275.2429 228.2555 278.4488 227.5861 282.367 228.2907 C 289.8016 229.6276 289.5471 234.3423 282.0404 234.3423 C 279.6663 234.3423 273.3007 237.516 267.8945 241.3949 C 262.4884 245.2738 258.0653 247.5696 258.0653 246.4967 z M 232.2988 478.0753 C 234.353 475.7468 234.6313 474.0354 232.9557 474.0354 C 231.3567 474.0354 229.3069 475.8534 228.4005 478.0753 C 227.4941 480.2971 227.1986 482.115 227.7436 482.115 C 228.2886 482.115 230.3385 480.2971 232.2988 478.0753 z M 148.1481 475.1618 C 147.1923 472.8189 146.4103 469.8316 146.4103 468.5236 C 146.4103 463.7297 134.0164 460.1509 108.9748 457.7137 C 78.57649 454.7552 64.5951 449.8562 60.10717 440.5904 C 55.89454 431.8927 59.5587 427.4727 78.44529 418.4697 C 102.1321 407.1784 173.2835 385.1605 186.0844 385.1605 C 190.929 385.1605 192.2175 383.5361 192.2175 377.4287 L 192.2175 369.6968 L 178.6184 372.0807 C 161.7293 375.0416 160.5975 375.3406 122.0752 387.0191 C 87.01602 397.6477 63.04273 408.1785 49.49653 418.9009 C 33.36279 431.6716 38.83068 452.8529 61.00871 463.4965 C 75.45205 470.428 114.9001 478.4764 137.4119 479.0848 C 147.6913 479.3626 149.5802 478.6723 148.1481 475.1618 z M 202.8569 369.6747 C 202.2009 365.6013 201.6642 368.9341 201.6642 377.0809 C 201.6642 385.2278 202.2009 388.5606 202.8569 384.4871 C 203.5129 380.4138 203.5129 373.7481 202.8569 369.6747 z M 226.5488 271.7571 C 230.2188 266.7321 235.9126 260.4184 239.2017 257.7268 L 245.182 252.8331 L 239.133 255.604 C 228.4732 260.4873 215.4969 276.9456 210.9496 291.35 C 204.6043 311.4497 205.6231 313.4876 213.2721 295.9958 C 216.9044 287.6896 222.8788 276.7823 226.5488 271.7571 z M 520.0698 276.2957 C 526.8034 269.4609 528.9755 268.8304 541.7948 269.9891 L 556.0382 271.2766 L 555.2093 251.1553 L 554.3805 231.0339 L 535.7714 224.6557 C 525.5363 221.1478 516.1866 218.5622 514.9945 218.9101 C 513.8023 219.258 512.1835 232.9063 511.3974 249.2398 C 510.611 265.5731 508.8219 282.5372 507.4216 286.9378 C 506.021 291.3384 504.0804 297.3628 503.1091 300.3253 C 502.1377 303.2877 503.8732 300.8016 506.9656 294.8006 C 510.0582 288.7997 515.955 280.4723 520.0698 276.2957 z M 492.1803 175.0937 C 491.2592 166.0767 492.0109 160.6879 494.4561 158.779 C 498.6657 155.4926 524.9901 157.7596 543.5138 163.0039 L 555.5553 166.4128 L 544.4831 145.6973 C 524.7949 108.8613 483.1308 78.8233 443.4557 72.86104 C 420.0405 69.34223 379.6236 74.67082 358.2647 84.09268 C 342.1435 91.20404 292.6758 134.4165 302.7249 132.6095 C 306.1573 131.9922 312.0068 133.3259 315.7237 135.5733 C 334.0344 146.6445 374.2283 151.8537 388.5641 145.0134 C 393.159 142.821 402.3269 138.3905 408.9373 135.1677 C 425.9348 126.8811 439.8555 127.422 448.7413 136.7144 C 465.0617 153.7816 477.8851 168.9816 483.9587 178.4587 C 487.5185 184.0134 491.1342 188.5581 491.9934 188.5581 C 492.8526 188.5581 492.9367 182.4991 492.1803 175.0937 z M 301.2437 142.7741 C 302.6895 142.7741 303.8725 141.8218 303.8725 140.658 C 303.8725 136.9474 292.6248 138.3892 291.0276 142.3045 C 289.9746 144.8858 290.9248 145.5502 294.0538 144.4206 C 296.5624 143.515 299.7978 142.7741 301.2437 142.7741 z M 501.4159 456.7699 C 501.4159 456.1613 507.3199 444.1755 514.5359 430.1348 C 527.1054 405.6775 527.4759 404.2792 523.369 396.8081 C 521.0112 392.519 515.7515 387.3329 511.6805 385.2835 C 501.9184 380.3687 502.2078 376.0407 512.152 378.2317 C 524.6014 380.9747 535.7714 394.2106 535.7714 406.2197 C 535.7714 417.7434 525.2491 439.3828 514.2544 450.4702 C 507.8316 456.9472 501.4159 460.0953 501.4159 456.7699 z M 354.1952 444.7471 C 353.3437 443.451 355.8209 442.3906 359.6999 442.3906 C 363.5791 442.3906 366.0562 443.451 365.2048 444.7471 C 364.3532 446.0433 361.876 447.1037 359.6999 447.1037 C 357.5239 447.1037 355.0468 446.0433 354.1952 444.7471 z M 501.6421 437.902 C 501.5177 435.063 502.1943 433.4722 503.1456 434.3672 C 504.097 435.2622 504.1988 437.5849 503.3716 439.5291 C 502.4578 441.6775 501.7793 441.0393 501.6421 437.902 z M 341.4837 433.4826 C 331.6922 427.8671 330.5268 422.9401 340.1299 427.759 C 345.0617 430.2338 355.9486 431.9152 362.6868 431.2427 C 364.3296 431.0787 373.3479 424.7939 382.7275 417.2764 C 401.0546 402.5876 409.7868 397.5996 427.4204 391.7469 C 441.9288 386.9317 439.1104 391.198 422.6852 398.9147 C 415.6709 402.21 399.9181 412.5771 387.679 421.9527 C 363.2422 440.6719 356.816 442.2758 341.4837 433.4826 z M 335.4813 386.0755 C 335.3609 382.8439 357.2211 355.5356 359.9284 355.5356 C 362.2876 355.5356 352.0024 371.1219 343.3543 380.6521 C 339.0881 385.3536 335.5453 387.7941 335.4813 386.0755 z M 534.5681 306.5474 C 528.5424 298.4548 532.0598 296.1659 538.3898 304.0602 C 542.9647 309.7655 543.6742 309.9313 545.4008 305.6985 C 546.4574 303.1083 545.8278 299.2955 544.0015 297.2256 C 539.9645 292.6497 542.4854 289.6461 548.5311 291.8284 C 554.4512 293.9655 554.3655 308.6637 548.4204 310.8099 C 541.2015 313.4158 539.2304 312.8093 534.5681 306.5474 z M 530.0454 295.0978 C 530.0454 294.4446 531.3338 293.1612 532.9084 292.2457 C 534.483 291.3301 535.7714 291.8647 535.7714 293.4333 C 535.7714 295.002 534.483 296.2855 532.9084 296.2855 C 531.3338 296.2855 530.0454 295.751 530.0454 295.0978 z M 535.4973 200.3668 C 532.1767 196.603 532.387 196.1491 537.0567 197.0004 C 540.0254 197.5416 542.9904 199.4992 543.6458 201.3508 C 545.3463 206.1551 540.0385 205.5142 535.4973 200.3668 z M 532.9084 188.5581 C 532.9084 187.0769 534.1968 185.8649 535.7714 185.8649 C 537.3459 185.8649 538.6343 187.0769 538.6343 188.5581 C 538.6343 190.0393 537.3459 191.2513 535.7714 191.2513 C 534.1968 191.2513 532.9084 190.0393 532.9084 188.5581 z M 560.1954 316.9695 C 560.5071 322.5335 559.4975 327.7085 557.6968 332.9404 C 555.5211 338.2154 553.3779 343.4875 551.3555 348.8191 C 549.5487 353.1621 547.1792 357.232 545.7151 361.7009 C 544.6389 365.5826 544.9107 369.6531 544.8337 373.6352 C 544.6539 377.0292 543.4343 379.8021 541.6235 382.611 C 540.2495 385.2414 538.9617 387.9313 537.6826 390.6146 C 536.8539 393.0142 535.543 395.1752 534.1749 397.3034 L 527.1117 400.4493 C 528.4427 398.3239 529.7947 396.1507 530.6187 393.762 C 531.9376 391.0573 533.2487 388.3587 534.489 385.6203 C 536.3613 382.9374 537.7159 380.3511 537.8869 376.9869 C 538.0927 372.9712 537.7488 368.8556 538.7513 364.9093 C 540.189 360.3814 542.4711 356.2483 544.4542 351.9281 C 546.5339 346.6467 548.5202 341.3299 550.7425 336.1027 C 552.6051 330.9921 553.9169 325.9431 553.1886 320.4523 L 560.1954 316.9695 z M 510.7027 451.2782 C 510.9091 454.081 509.577 455.9303 507.8655 457.9997 C 506.9947 459.036 507.0738 460.3001 506.8592 461.5371 L 499.9281 464.9315 C 500.083 463.5928 499.9999 462.2138 500.7108 460.9961 C 502.4017 459.1412 503.8975 457.4051 503.6568 454.7804 L 510.7027 451.2782 z " />
</svg>
